#N canvas 437 18 902 679 10;
#X obj 182 68 ctlin;
#X obj 577 150 < 95;
#X obj 604 445 timer;
#X floatatom 604 466 5 0 0 0 - - -;
#X obj 604 506 t b f;
#X obj 604 553 /;
#X floatatom 604 574 5 0 0 0 - - -;
#X obj 638 229 f 1;
#X obj 588 192 t f b f;
#X obj 638 261 == 0;
#X obj 596 261 == 1;
#X obj 611 332 sel 1;
#X obj 436 424 vline~;
#X obj 380 499 dac~;
#X obj 399 467 *~;
#X obj 394 377 osc~ 880;
#X msg 442 404 0 \, 1 50 0 \, 0 50 50;
#X obj 611 299 &&;
#X obj 601 391 t b b;
#X msg 604 533 60000;
#X obj 604 484 * 12;
#X connect 0 0 1 0;
#X connect 1 0 8 0;
#X connect 2 0 3 0;
#X connect 3 0 20 0;
#X connect 4 0 19 0;
#X connect 4 1 5 1;
#X connect 5 0 6 0;
#X connect 7 0 9 0;
#X connect 8 0 7 1;
#X connect 8 1 7 0;
#X connect 8 2 10 0;
#X connect 9 0 17 0;
#X connect 10 0 17 1;
#X connect 11 0 16 0;
#X connect 11 0 18 0;
#X connect 12 0 14 1;
#X connect 14 0 13 1;
#X connect 15 0 14 0;
#X connect 16 0 12 0;
#X connect 17 0 11 0;
#X connect 18 0 2 0;
#X connect 18 1 2 1;
#X connect 19 0 5 0;
#X connect 20 0 4 0;
